<?xml version="1.0" ?><svg id="Layer_1" style="enable-background:new 0 0 1000 1000;" version="1.1"
    viewBox="0 0 1000 1000" xml:space="preserve" xmlns="http://www.w3.org/2000/svg"
    xmlns:xlink="http://www.w3.org/1999/xlink">
    <style type="text/css">
        .st0 {
            fill: none;
            stroke: #000000;
            stroke-width: 12;
            stroke-linecap: round;
            stroke-linejoin: round;
            stroke-miterlimit: 10;
        }
    </style>
    <path class="st0"
        d="M304.6,332.5c15.8-16.5,35.3-27.6,59.3-30.8c24.2-3.3,47.3,1.7,69.1,12.1c8.3,3.9,16.2,8.7,23.9,13.6  c10.2,6.5,21.2,10.1,33.3,10c6.1-0.1,12.1-0.1,18.2,0c13.2,0.3,25.1-3.6,36.1-11c20.1-13.5,42-22.6,66.4-25.1  c36.1-3.6,65.4,9.7,89.1,36.4c18.4,20.7,30.9,45.1,41.2,70.5c19,46.9,26.7,95.9,24.7,146.4c-0.9,22.8-2.5,45.7-10.2,67.5  c-7.6,21.6-25.5,33.2-47.3,30.6c-11.8-1.4-21.1-8.4-30.1-15.4c-22.8-17.8-43-38.3-61.4-60.5c-11.1-13.3-24-19.3-41.5-19.1  c-29.6,0.4-51.2,0.4-80.8,0.4 M472.2,558.1C472,558.1,472.4,558.1,472.2,558.1 M448.5,558c-11.7,0-16.3-0.1-28-0.1  c-14.2-0.1-25.4,5-34.5,15.8c-18.9,22.2-38.9,43.4-61.7,61.6c-4.9,3.9-10,7.4-15.2,10.8c-21.7,14.4-53.2,7.5-64.5-23.3  c-6.7-18.1-8.2-37.1-9.7-56.1c-0.2-2.2-0.7-4.4-1-6.6c0-12.5,0-25,0-37.4c1-9.8,1.8-19.6,3.1-29.3c6.7-50.2,21.9-97.2,50.4-138.9   M362.7,457c0,10.4,0.3,20.1-0.1,29.7c-0.2,4.5,1.7,6.6,5.4,8.3c8.8,4.1,17.5,3.1,26.3,0c3.8-1.4,5.7-3.4,5.5-8  c-0.4-9.8-0.1-19.7-0.1-30c11.3,0,22,0.1,32.7-0.1c1.6,0,3.9-0.8,4.6-2c5.5-9.8,6.7-19.9,1.3-30.2c-1.7-3.3-3.7-5.2-8-5  c-9.6,0.4-19.3,0.1-29.2,0.1c0-11.1-0.1-21.4,0.1-31.8c0-2.9-0.9-4.4-3.6-5.3c-9.4-3.3-18.9-3.6-28.6-1.2c-3.7,0.9-5.2,2.8-5.1,6.9  c0.3,10.3,0.1,20.7,0.1,31.4c-11.2,0-21.7,0.1-32.2-0.1c-3.3-0.1-5,1.1-6.1,4.1c-3.8,9.7-3.7,19.2,0.2,28.8c1.2,3,3.1,4.5,6.7,4.4  C342.2,456.8,352,457,362.7,457z M704,431.2c-0.1-15.9-12.8-28.6-28.7-28.7c-16.1,0-28.9,13-28.8,29.1c0.2,15.8,13.3,28.6,29,28.5  C691.3,460,704.1,447.1,704,431.2z M574.7,388.6c-0.1,15.9,12.6,28.8,28.4,29c15.7,0.2,28.8-12.7,29-28.4  c0.2-16.1-12.7-29.2-28.8-29.2C587.5,359.9,574.8,372.6,574.7,388.6z M603.6,496.8c15.9-0.1,28.6-13,28.5-28.8  c0-16-13.2-28.9-29.3-28.6c-15.9,0.2-28.4,13.1-28.2,29.1C574.9,484.5,587.7,497,603.6,496.8z" />
</svg>